<svg xmlns="http://www.w3.org/2000/svg" viewBox="0 0 64 64" role="img" aria-label="Cheri Finance">
  <defs>
    <linearGradient id="bg" x1="8" y1="6" x2="58" y2="60" gradientUnits="userSpaceOnUse">
      <stop offset="0" stop-color="#102540"/>
      <stop offset="0.56" stop-color="#17476c"/>
      <stop offset="1" stop-color="#1d8891"/>
    </linearGradient>
    <linearGradient id="shine" x1="18" y1="13" x2="50" y2="51" gradientUnits="userSpaceOnUse">
      <stop offset="0" stop-color="#8be5d3"/>
      <stop offset="1" stop-color="#48c3ff"/>
    </linearGradient>
    <filter id="shadow" x="-20%" y="-20%" width="140%" height="140%">
      <feDropShadow dx="0" dy="3" stdDeviation="3" flood-color="#061021" flood-opacity="0.28"/>
    </filter>
  </defs>
  <rect width="64" height="64" rx="18" fill="url(#bg)"/>
  <path d="M14 43.5V22.8c0-4 3.2-7.3 7.3-7.3h25.4c1.8 0 3.3 1.5 3.3 3.3v26.4c0 1.8-1.5 3.3-3.3 3.3H21.3c-4.1 0-7.3-3.3-7.3-7.3Z" fill="#f7fbff" fill-opacity="0.94" filter="url(#shadow)"/>
  <path d="M20 20h24.5c1.9 0 3.5 1.6 3.5 3.5V27H20c-2.2 0-4-1.8-4-4s1.8-3 4-3Z" fill="#dceafe"/>
  <path d="M39 34.5h11v9H39c-2.5 0-4.5-2-4.5-4.5s2-4.5 4.5-4.5Z" fill="url(#shine)"/>
  <circle cx="40" cy="39" r="2.2" fill="#102540"/>
  <path d="M24.2 39.3c-2.6 0-4.7-1.9-4.7-4.5s2.1-4.6 4.8-4.6c1.6 0 2.8.6 3.7 1.6l-1.6 1.7c-.6-.6-1.2-.9-2-.9-1.3 0-2.3 1-2.3 2.2 0 1.3 1 2.2 2.3 2.2.9 0 1.5-.3 2.1-1l1.6 1.6c-.9 1.1-2.1 1.7-3.9 1.7Zm6.3-.2v-8.7h6.4v2.2h-3.8v1.5h3.4v2.1h-3.4v2.9h-2.6Z" fill="#102540"/>
</svg>
